<?xml version="1.0" standalone="no"?><!DOCTYPE svg PUBLIC "-//W3C//DTD SVG 1.1//EN" "http://www.w3.org/Graphics/SVG/1.1/DTD/svg11.dtd"><svg t="1502703074036" class="icon" style="" viewBox="0 0 1024 1024" version="1.1" xmlns="http://www.w3.org/2000/svg" p-id="13938" xmlns:xlink="http://www.w3.org/1999/xlink" width="200" height="200"><defs><style type="text/css"></style></defs><path d="M1016.478865 511.948836c0-278.12851-226.350355-504.376536-504.478865-504.376536S7.521135 233.820326 7.521135 511.948836c0 144.487659 61.192365 274.956331 158.915959 366.949535l-0.306985 0.409313 12.791046 11.153792c1.739582 1.534926 3.581493 2.762866 5.321075 4.297792 9.004897 7.674628 18.112122 15.144599 27.62866 22.205256 2.660538 1.944239 5.321075 3.78615 7.981613 5.730389 10.130509 7.265314 20.568002 14.223643 31.210153 20.670331 1.637254 1.023284 3.479165 1.944239 5.116419 2.967523 11.358449 6.651344 22.921555 12.995703 34.689317 18.82842 0.61397 0.306985 1.330269 0.716299 1.944239 1.023284 12.791046 6.139702 25.889078 11.767763 39.191766 16.781853 1.023284 0.409313 1.944239 0.716299 2.865194 1.125612 12.995703 4.911762 26.400719 9.209553 39.908064 12.995703 1.22794 0.306985 2.558209 0.716299 3.78615 1.125612 13.302688 3.683821 26.707705 6.753672 40.419706 9.311882 1.534926 0.306985 3.069851 0.511642 4.707105 0.818627 13.507345 2.353553 27.117018 4.297792 41.033676 5.62806 1.534926 0.102328 3.069851 0.204657 4.604777 0.306985 14.121315 1.22794 28.344959 1.944239 42.773259 1.944239 14.4283 0 28.651944-0.716299 42.773259-1.944239 1.534926-0.102328 3.069851-0.204657 4.502448-0.306985 13.916658-1.330269 27.526332-3.172179 41.136005-5.62806 1.534926-0.306985 2.967523-0.511642 4.502448-0.818627 13.712002-2.558209 27.321675-5.62806 40.624363-9.311882 1.125612-0.306985 2.353553-0.61397 3.479165-1.023284 13.609673-3.888478 27.117018-8.18627 40.215049-13.20036 0.818627-0.306985 1.534926-0.61397 2.353553-0.920955 13.507345-5.116419 26.810033-10.744479 39.703408-17.088838 0.409313-0.204657 0.818627-0.409313 1.125612-0.61397 12.279404-6.037374 24.251824-12.484061 35.917258-19.44239 1.432597-0.818627 2.865194-1.637254 4.297792-2.455881 10.949136-6.651344 21.591286-13.712002 31.926451-21.181973 2.455881-1.739582 4.911762-3.376836 7.265314-5.218747 9.721195-7.265314 19.135405-14.837614 28.344959-22.716898 1.637254-1.330269 3.376836-2.558209 4.911762-3.990806l12.688718-11.256121-0.306985-0.409313C955.286499 786.905166 1016.478865 656.538823 1016.478865 511.948836L1016.478865 511.948836 1016.478865 511.948836zM58.378335 510.823224C58.378335 260.732687 261.909463 57.201559 512 57.201559c250.090537 0 453.621665 203.4288 453.621665 453.519336 0 129.650045-54.745678 246.7137-142.338763 329.395023-32.131108-31.005496-81.453383-49.62926-139.678225-65.797142-26.400719-11.665434-32.233437-14.4283-38.884781-19.749375l-7.060658-7.060658C627.017088 737.275907 621.184371 731.647847 619.137804 716.196263l0-53.722394c18.726092-21.693614 30.493854-50.652543 42.159288-88.821025 15.758569-6.037374 31.312481-25.786749 36.326571-47.889677 5.321075-23.84251 2.762866-43.796542-6.344359-54.950335 25.684421-96.904967 21.693614-179.688618-10.949136-222.973519-17.191166-22.819227-42.159288-34.893974-72.243829-34.893974-2.762866-2.251224-4.604777-4.707105-6.856001-7.879285-11.767763-16.065554-24.251824-27.526332-78.690517-27.526332l-5.832717 0c-65.387829 0-115.017088 19.647047-147.352853 58.531828-41.545318 49.833916-53.313081 129.240731-35.098631 236.173878-7.776956 11.153792-10.232837 29.879884-6.037374 52.08514 3.990806 20.772659 17.088838 39.601079 31.824123 47.275707 14.325972 41.647647 29.265914 70.606575 46.354752 89.946637 1.023284 31.517138 1.330269 51.164185 0.102328 57.917857-1.841911 9.823524-7.060658 18.726092-16.577196 28.24263-8.902568 8.902568-20.772659 15.451584-45.536125 25.275107C283.193764 789.975017 233.155191 808.803438 200.717098 840.115919 113.124013 757.434596 58.378335 640.473269 58.378335 510.823224L58.378335 510.823224 58.378335 510.823224zM58.378335 510.823224" p-id="13939"></path></svg>