<?xml version="1.0" standalone="no"?><!DOCTYPE svg PUBLIC "-//W3C//DTD SVG 1.1//EN" "http://www.w3.org/Graphics/SVG/1.1/DTD/svg11.dtd"><svg t="1502436130094" class="icon" style="" viewBox="0 0 1024 1024" version="1.1" xmlns="http://www.w3.org/2000/svg" p-id="2214" xmlns:xlink="http://www.w3.org/1999/xlink" width="200" height="200"><defs><style type="text/css"></style></defs><path d="M868.608 137.024l-6.848-6.848C817.792 86.208 759.616 63.936 702.08 64 644.48 63.936 586.24 86.208 542.336 130.176L475.776 196.8c-27.264 27.264-27.264 71.552 0 98.816 27.264 27.264 71.552 27.264 98.816 0l66.624-66.624c17.024-16.96 38.592-25.152 60.864-25.216 22.272 0.064 43.904 8.256 60.864 25.216l6.912 6.912c16.96 16.96 25.152 38.592 25.216 60.736-0.064 22.4-8.32 44.032-25.28 61.056L607.808 519.616C590.848 536.576 569.152 544.768 546.304 544.896 524.608 544.832 503.104 536.64 486.08 519.616L479.168 512.768 380.352 611.584l6.912 6.912c43.584 43.648 101.376 66.176 159.04 66.112l0.384 0c57.344 0 115.84-21.952 160-66.112l161.92-162.048c44.032-44.032 66.24-102.272 66.176-159.872C934.848 239.04 912.576 180.928 868.608 137.024zM452.672 725.248l-69.824 69.76c-16.96 17.024-38.72 25.152-61.504 25.28-21.76-0.128-43.264-8.256-60.288-25.28l-6.912-6.848c-16.96-17.024-25.152-38.656-25.216-61.12 0.064-22.08 8.256-43.648 25.216-60.608l161.984-161.984c17.024-16.96 38.656-25.152 60.928-25.28 22.272 0.064 43.84 8.32 60.864 25.28l6.912 6.848 0 0 98.752-98.88L636.736 405.504 624.256 393.024C618.88 387.648 612.864 383.36 606.464 380.096 567.68 353.024 522.176 339.328 477.12 339.392c-57.6-0.064-115.84 22.208-159.744 66.176L155.328 567.552c-43.84 43.84-66.24 101.952-66.176 159.424-0.064 57.6 22.08 115.904 66.176 160l6.912 6.848C205.824 937.472 263.68 960.064 321.344 960l0.32 0c57.344 0 115.84-21.952 160-66.112l69.76-69.824c27.328-27.328 27.328-71.552 0-98.816C524.16 697.92 480 697.92 452.672 725.248z" p-id="2215"></path></svg>