<?xml version="1.0" standalone="no"?><!DOCTYPE svg PUBLIC "-//W3C//DTD SVG 1.1//EN" "http://www.w3.org/Graphics/SVG/1.1/DTD/svg11.dtd"><svg t="1502435820306" class="icon" style="" viewBox="0 0 1024 1024" version="1.1" xmlns="http://www.w3.org/2000/svg" p-id="2780" xmlns:xlink="http://www.w3.org/1999/xlink" width="200" height="200"><defs><style type="text/css"></style></defs><path d="M204.799288 716.744295l0 51.089494L333.491149 767.833789c-0.640729-8.430509-0.968127-16.94926-0.968127-25.544747s0.32612-17.114238 0.968127-25.544747L204.799288 716.744295zM402.842055 537.929788 204.799288 537.929788l0 51.089494 165.155856 0C379.371684 570.953541 390.390686 553.857207 402.842055 537.929788zM511.33753 1.487545 358.069048 1.487545l0 51.089494 153.26976 0L511.338809 1.487545zM424.990045 972.193043 77.074274 972.193043c-14.108823 0-25.544747-11.435923-25.544747-25.544747L51.529528 78.121785c0-14.108823 11.435923-25.544747 25.544747-25.544747l122.516054 0c16.14739 5.512059 30.430145 19.371497 30.753706 51.089494 0.566552 55.83805 76.634241 51.089494 76.634241 51.089494L562.427024 154.756026c0 0 71.481553 0 76.634241-58.493046 2.327597-26.431025 15.482362-38.57418 30.253657-43.687221l123.016104 0c14.108823 0 25.544747 11.435923 25.544747 25.544747l0 369.515111c18.06574 9.41654 35.163353 20.436821 51.089494 32.88819L868.965265 52.577039c0-28.216369-22.873125-51.089494-51.089494-51.089494L664.60729 1.487545c0 0-76.634241-15.120433-76.634241 51.089494 0 35.078945-21.512375 47.325691-41.742014 51.089494L330.96788 103.666532c-22.050793-2.738125-49.534352-13.654814-49.534352-51.089494 0-62.508791-76.634241-51.092052-76.634241-51.092052l-0.002558 0.002558L51.529528 1.487545C23.313159 1.487545 0.440034 24.36067 0.440034 52.577039l0 919.616004c0 28.216369 22.873125 51.089494 51.089494 51.089494l436.053715 0C464.676866 1008.822016 443.659425 991.64639 424.990045 972.193043zM664.60729 359.116559 204.799288 359.116559l0 51.089494 459.808002 0L664.60729 359.116559zM664.60729 461.295547c-155.18811 0-280.993495 125.805385-280.993495 280.993495s125.805385 280.993495 280.993495 280.993495 280.993495-125.805385 280.993495-280.993495S819.7954 461.295547 664.60729 461.295547zM817.877051 767.833789 639.062543 767.833789 639.062543 589.02056l51.089494 0 0 127.725014 127.725014 0L817.877051 767.833789z" p-id="2781"></path></svg>