<?xml version="1.0" standalone="no"?><!DOCTYPE svg PUBLIC "-//W3C//DTD SVG 1.1//EN" "http://www.w3.org/Graphics/SVG/1.1/DTD/svg11.dtd"><svg t="1502435209599" class="icon" style="" viewBox="0 0 1024 1024" version="1.1" xmlns="http://www.w3.org/2000/svg" p-id="2137" xmlns:xlink="http://www.w3.org/1999/xlink" width="200" height="200"><defs><style type="text/css"></style></defs><path d="M204.510939 278.944248c0 52.753705 106.230064 95.390261 237.752999 95.390262s237.752999-42.636556 237.752999-95.390262-106.952717-95.390261-238.475653-95.390261c-130.800282 0-237.030346 42.636556-237.030345 95.390261z" fill="#4F4F4F" p-id="2138"></path><path d="M441.541284 493.572336c34.687368 0 68.652082-2.890614 102.616796-9.394495 33.964714-26.015526 74.43331-43.35921 117.069866-49.140438 10.839802-9.394495 18.066337-22.402258 18.788991-36.855328V317.967537c-3.613267 51.308398-108.398024 93.222301-237.752999 93.222301s-238.475653-42.636556-238.475653-95.390261V397.459421c0.722653 53.476359 106.952717 96.112915 237.752999 96.112915z" fill="#4F4F4F" p-id="2139"></path><path d="M441.541284 527.53705C310.741002 527.53705 204.510939 484.900494 204.510939 430.701482V513.08398c0 52.753705 106.230064 95.390261 237.752999 95.390261h16.62103c9.394495-30.351447 24.570219-59.257586 44.804517-83.827805-20.956951 2.16796-41.191249 2.890614-62.148201 2.890614z" fill="#4F4F4F" p-id="2140"></path><path d="M450.93578 644.606916h-9.394496c-131.522936 0-237.752999-41.191249-237.752999-95.390261v82.382498c0 52.753705 106.230064 95.390261 237.752999 95.390261h12.28511c-5.781228-27.460833-6.503881-54.921665-2.890614-82.382498z m245.702188-172.714185c-83.827805 0-159.706422 49.863091-192.22583 127.187015-32.519407 76.60127-14.45307 165.48765 44.804517 224.745236 59.257586 58.534933 148.86662 76.60127 226.913197 44.804517 78.046577-31.796754 128.632322-106.952717 128.632322-190.057869a207.401553 207.401553 0 0 0-208.124206-206.678899z m74.433309 213.182781c6.503881 1.445307 11.562456 6.503881 11.562456 13.730416 0 6.503881-5.058574 12.285109-11.562456 13.730416h-61.425547v60.702894c-1.445307 6.503881-6.503881 11.562456-13.730416 11.562456-6.503881 0-12.285109-5.058574-13.730416-11.562456v-61.425547h-62.870854c-5.058574 0.722653-10.839802-1.445307-13.730417-5.781228-2.890614-4.335921-2.890614-10.117149 0-15.175723 2.890614-4.335921 8.671842-6.503881 13.730417-5.781228h62.1482v-26.73818h-62.1482c-5.058574 0.722653-10.839802-1.445307-13.730417-5.781228-2.890614-4.335921-2.890614-10.117149 0-15.175723 2.890614-4.335921 8.671842-6.503881 13.730417-5.781228h31.796753l-28.906139-41.191249c-2.890614-5.781228-1.445307-13.007763 4.335921-17.343684 5.781228-3.613267 13.007763-3.613267 18.066337 1.445307L686.520819 628.708539h18.78899l39.745943-53.476358c2.16796-5.058574 7.226535-7.949188 13.007762-7.226535 5.058574 0 10.117149 3.613267 12.28511 8.671842 2.16796 5.058574 0.722653 10.839802-2.890614 14.45307l-28.90614 41.191249h31.796754c6.503881 1.445307 11.562456 6.503881 11.562456 13.730416 0 6.503881-5.058574 12.285109-11.562456 13.730416h-59.98024V686.520819h60.702893v-1.445307z" fill="#4F4F4F" p-id="2141"></path></svg>