<?xml version="1.0" standalone="no"?><!DOCTYPE svg PUBLIC "-//W3C//DTD SVG 1.1//EN" "http://www.w3.org/Graphics/SVG/1.1/DTD/svg11.dtd"><svg t="1502435066394" class="icon" style="" viewBox="0 0 1024 1024" version="1.1" xmlns="http://www.w3.org/2000/svg" p-id="1461" xmlns:xlink="http://www.w3.org/1999/xlink" width="200" height="200"><defs><style type="text/css"></style></defs><path d="M722.10379 570.515749" p-id="1462"></path><path d="M910.50095 247.680832 163.465253 247.680832c0 0-56.519148-11.467653-56.519148-45.665833l815.022499-79.966403L921.968604 53.754625c0 0-10.034197-62.560144-101.775423-45.665833L95.580841 133.618638c0 0-90.512549 11.467653-90.512549 125.632237l0 650.584542c0 63.072093 50.682932 114.164584 113.243076 114.164584l792.394361 0c62.560144 0 113.243076-51.092491 113.243076-114.164584L1023.948806 361.845416C1023.744026 298.773323 973.061094 247.680832 910.50095 247.680832L910.50095 247.680832zM842.718928 715.80682c-43.822818 0-79.249675-35.836416-79.249675-79.966403 0-44.129987 35.426857-79.966403 79.249675-79.966403 43.822818 0 79.249675 35.836416 79.249675 79.966403C921.968604 679.970404 886.541746 715.80682 842.718928 715.80682L842.718928 715.80682zM842.718928 715.80682" p-id="1463"></path></svg>